<?xml version="1.0" standalone="no"?>
<!DOCTYPE svg PUBLIC "-//W3C//DTD SVG 20010904//EN"
 "http://www.w3.org/TR/2001/REC-SVG-20010904/DTD/svg10.dtd">
<svg version="1.0" xmlns="http://www.w3.org/2000/svg"
 width="500.000000pt" height="500.000000pt" viewBox="0 0 500.000000 500.000000"
 preserveAspectRatio="xMidYMid meet">

<g transform="translate(0.000000,500.000000) scale(0.100000,-0.100000)"
fill="#000000" stroke="none">
<path d="M4440 4960 c0 -22 -4 -40 -10 -40 -5 0 -10 5 -10 11 0 6 -7 8 -17 5
-9 -4 -20 -1 -25 6 -6 11 -10 10 -17 -1 -6 -9 -10 -10 -16 -2 -5 9 -10 9 -20
1 -7 -6 -20 -7 -29 -4 -9 4 -16 3 -15 -2 5 -28 -2 -46 -16 -40 -10 3 -20 -5
-30 -24 -18 -34 -15 -33 -49 -20 -21 7 -26 6 -26 -5 0 -18 -16 -20 -23 -2 -4
9 -8 9 -15 -2 -5 -7 -15 -10 -21 -7 -7 4 -11 -1 -11 -13 0 -14 -8 -21 -27 -23
-20 -2 -28 -8 -27 -21 2 -13 -3 -16 -18 -11 -14 4 -18 2 -14 -5 4 -6 1 -11 -8
-11 -8 0 -18 -9 -21 -21 -5 -15 -10 -17 -20 -9 -10 9 -17 4 -31 -19 -15 -25
-23 -30 -53 -28 -29 2 -37 -2 -39 -18 -2 -11 -19 -31 -38 -45 -19 -14 -37 -35
-40 -47 -6 -23 -44 -33 -44 -13 0 6 -11 3 -26 -6 -14 -9 -23 -23 -20 -30 5
-14 -20 -27 -35 -18 -5 3 -9 1 -9 -5 0 -5 -8 -12 -17 -14 -17 -4 -17 -5 0 -6
9 0 17 -4 17 -9 0 -10 -42 -37 -57 -37 -7 0 -28 -18 -48 -39 -19 -21 -35 -34
-35 -28 0 16 -59 -9 -65 -28 -5 -15 -54 -41 -85 -45 -29 -4 -60 -17 -60 -26 0
-5 5 -9 11 -9 6 0 9 -10 7 -22 -2 -16 -18 -30 -53 -47 -27 -13 -51 -27 -53
-32 -2 -5 -10 -9 -18 -9 -8 0 -14 -5 -14 -11 0 -5 -4 -7 -10 -4 -5 3 -10 -3
-10 -14 0 -12 -4 -21 -10 -21 -5 0 -10 -7 -10 -15 0 -8 -9 -24 -20 -35 -11
-11 -20 -26 -20 -33 0 -7 -9 -18 -20 -25 -11 -7 -20 -8 -20 -3 0 5 -8 8 -17 7
-18 -1 -50 -35 -45 -48 1 -5 -5 -8 -13 -8 -9 0 -15 -9 -15 -21 0 -14 -5 -19
-14 -16 -10 4 -18 -5 -25 -25 -6 -17 -20 -37 -31 -45 -11 -8 -20 -21 -20 -29
0 -8 -10 -14 -25 -14 -20 0 -24 -5 -22 -22 1 -16 -3 -23 -15 -23 -9 0 -20 -4
-24 -8 -4 -4 -17 -7 -29 -7 -12 0 -30 -9 -40 -20 -10 -11 -24 -20 -32 -20 -7
0 -13 -6 -13 -12 0 -20 -123 -147 -145 -150 -16 -3 -20 -11 -18 -37 1 -23 -3
-31 -12 -27 -8 3 -17 -3 -20 -15 -4 -10 -13 -19 -21 -19 -8 0 -14 -6 -14 -14
0 -8 -9 -21 -20 -29 -12 -8 -20 -21 -18 -28 2 -8 -7 -15 -19 -17 -15 -2 -23
-10 -23 -23 0 -29 -32 -20 -48 14 -7 15 -20 27 -28 27 -8 0 -13 4 -10 8 2 4
-8 13 -24 20 -26 12 -28 15 -18 43 12 34 6 44 -79 151 -55 70 -175 178 -197
178 -7 0 -28 7 -46 16 -46 24 -158 29 -190 10 -14 -8 -35 -20 -47 -25 -11 -5
-29 -24 -39 -40 -10 -17 -22 -31 -26 -31 -4 0 -8 -5 -8 -11 0 -5 5 -7 10 -4 6
3 10 1 10 -6 0 -8 4 -8 15 1 22 18 20 -5 -2 -28 -22 -22 -28 -49 -13 -66 7
-10 6 -17 -5 -26 -12 -10 -13 -16 -3 -27 14 -17 20 -63 8 -63 -9 0 -21 -58
-23 -117 -1 -24 -5 -43 -8 -43 -6 0 -9 -18 -11 -73 -1 -42 34 -90 58 -80 10 3
12 0 8 -10 -8 -21 3 -38 85 -142 67 -85 89 -113 157 -194 19 -23 24 -36 16
-39 -6 -2 -12 -13 -12 -24 0 -11 -15 -33 -32 -49 -28 -24 -31 -31 -18 -39 12
-8 10 -10 -10 -11 -14 0 -19 -3 -12 -6 6 -2 12 -13 12 -23 0 -14 -9 -20 -32
-22 -25 -2 -33 -8 -33 -23 0 -11 -10 -28 -22 -38 -13 -10 -23 -25 -23 -32 0
-7 -12 -23 -27 -35 -20 -16 -24 -23 -15 -32 18 -18 14 -27 -10 -21 -18 4 -20
3 -12 -6 8 -9 -14 -37 -88 -112 -74 -75 -104 -112 -115 -145 -8 -25 -26 -52
-39 -61 -22 -14 -36 -41 -14 -28 6 3 10 0 10 -8 0 -8 -16 -25 -36 -38 -34 -23
-74 -83 -74 -113 0 -9 -11 -16 -28 -18 -26 -3 -27 -6 -30 -60 -2 -43 -7 -58
-17 -58 -8 0 -15 -7 -15 -15 0 -8 -9 -15 -21 -15 -11 0 -18 -4 -15 -8 7 -12
-50 -72 -68 -72 -9 0 -16 -9 -16 -20 0 -26 -33 -92 -54 -110 -18 -14 -43 -64
-48 -95 -2 -12 -12 -21 -26 -23 -16 -3 -21 -8 -17 -21 8 -27 -31 -93 -67 -110
-41 -20 -64 -47 -157 -185 -107 -159 -236 -394 -266 -481 -8 -22 -27 -77 -44
-122 -52 -142 -55 -350 -6 -399 13 -13 20 -24 15 -24 -22 0 -8 -17 22 -27 68
-23 84 -26 71 -13 -6 7 -9 18 -7 25 3 7 1 16 -5 20 -6 3 -11 13 -11 21 0 19
46 18 54 -1 3 -8 10 -15 16 -15 6 0 8 5 4 12 -5 7 -2 9 9 5 16 -6 57 23 57 41
0 5 9 8 20 5 18 -5 70 38 70 58 0 5 6 9 13 9 7 0 17 10 22 23 6 12 17 21 24
19 23 -5 151 51 183 80 16 15 32 28 36 29 4 1 16 7 27 14 11 7 34 19 50 27 17
8 29 20 28 26 -2 7 1 12 7 12 14 0 47 38 85 96 23 36 31 59 28 77 -4 21 0 28
19 36 31 12 177 191 213 261 10 19 21 37 24 40 6 5 96 131 155 218 28 40 28
43 11 56 -17 12 -16 13 12 19 24 5 32 13 36 36 4 16 14 32 24 35 10 3 28 24
41 46 12 22 33 47 46 55 13 9 30 30 37 48 7 18 21 41 31 51 10 11 25 41 34 68
9 27 26 60 39 74 13 14 27 38 30 52 8 35 24 55 57 69 15 7 44 38 65 69 21 31
46 68 55 82 9 14 15 29 13 33 -3 4 1 9 9 12 7 3 16 15 19 27 4 17 2 20 -15 14
-14 -4 -18 -2 -14 5 4 6 22 11 40 11 31 0 34 3 41 37 10 57 31 90 62 98 l28 7
-23 18 c-26 22 -29 35 -4 21 9 -5 20 -8 24 -8 5 1 24 -20 43 -48 20 -27 44
-53 53 -57 26 -10 44 -9 37 2 -3 5 -2 10 4 10 5 0 16 3 25 6 11 4 16 1 16 -11
0 -9 7 -24 16 -32 8 -9 13 -24 11 -35 -5 -19 2 -19 49 -1 6 2 16 -8 22 -22 7
-15 8 -25 2 -25 -6 0 -10 -5 -10 -10 0 -12 52 -2 60 11 3 4 12 4 20 -2 13 -8
12 -12 -7 -27 -21 -16 -25 -43 -10 -58 4 -4 2 -13 -4 -21 -9 -10 -8 -13 7 -12
11 1 34 1 52 1 30 -2 32 -3 18 -18 -9 -8 -16 -19 -16 -23 0 -17 30 -32 50 -26
11 4 20 3 19 -2 -3 -20 2 -25 16 -13 20 17 32 5 15 -15 -11 -13 -9 -15 10 -13
15 2 25 -4 31 -19 6 -18 2 -28 -21 -50 -17 -15 -30 -34 -30 -40 0 -14 22 -17
34 -6 10 10 89 33 95 28 2 -3 -2 -11 -9 -20 -17 -20 -5 -32 15 -15 13 10 15 9
15 -8 0 -12 8 -22 21 -25 16 -4 19 -11 14 -26 -5 -17 -2 -21 17 -22 13 0 17
-3 11 -6 -18 -7 -16 -33 2 -33 12 0 13 -4 5 -19 -18 -34 -12 -44 20 -37 19 3
29 2 25 -4 -10 -17 11 -11 37 9 15 12 29 16 37 11 10 -6 9 -9 -6 -14 -11 -4
-28 -15 -38 -26 -10 -11 -27 -20 -38 -20 -11 0 -17 -3 -14 -7 4 -3 2 -12 -4
-20 -9 -10 -7 -13 10 -13 12 0 20 4 16 9 -6 11 1 16 38 25 20 5 27 3 27 -9 0
-8 -4 -15 -10 -15 -5 0 -10 -5 -10 -11 0 -7 -8 -18 -17 -25 -16 -12 -16 -13 8
-14 15 0 32 7 39 15 14 17 35 21 25 5 -4 -6 -2 -16 3 -23 11 -12 12 -17 12
-40 0 -8 10 -19 23 -24 l22 -11 -27 -11 c-32 -12 -38 -26 -8 -18 11 3 20 1 20
-4 0 -12 70 -1 88 14 11 8 11 12 0 19 -10 6 -9 12 6 23 11 8 16 15 10 15 -5 0
2 10 16 21 l25 20 -35 -6 c-28 -5 -31 -4 -17 5 9 6 15 15 12 21 -4 5 -2 9 3 9
13 0 24 44 16 64 -3 9 -13 16 -22 16 -14 0 -14 2 0 18 18 20 29 72 16 72 -5 0
-8 6 -6 13 1 6 -3 22 -10 35 -7 12 -9 22 -5 22 4 1 -3 7 -16 14 l-24 14 21 11
c24 13 29 31 10 31 -7 1 -24 10 -37 21 -23 19 -23 20 -5 34 18 14 18 15 -9 39
-20 17 -27 31 -23 44 4 12 1 22 -6 25 -10 3 -13 25 -11 76 2 66 0 70 -16 61
-25 -13 -31 -4 -31 42 0 34 -5 41 -35 60 -35 20 -35 21 -18 40 17 19 17 20 -2
35 -11 8 -19 19 -17 24 1 5 -5 9 -13 9 -8 0 -15 7 -15 15 0 8 -5 15 -11 15 -6
0 -8 7 -5 16 5 12 1 14 -14 9 -21 -7 -21 -6 -1 26 21 34 19 52 -12 86 -11 12
-20 36 -21 53 -1 16 -4 30 -9 30 -15 0 -68 54 -63 65 2 7 -11 18 -30 25 -32
13 -33 15 -27 53 3 21 2 42 -3 46 -5 3 -14 19 -19 36 -8 21 -18 31 -41 36 -44
9 -56 18 -49 40 4 11 2 19 -4 19 -6 0 -11 10 -11 21 0 18 2 20 16 8 13 -10 17
-10 25 2 7 12 9 12 9 0 0 -11 4 -10 13 4 8 10 19 15 25 11 13 -8 61 40 62 60
0 7 9 14 19 17 17 4 19 13 16 88 -4 101 -3 98 -15 79 -7 -11 -10 -6 -10 21 0
31 4 37 35 49 22 9 34 19 30 27 -3 7 -8 20 -11 29 -5 12 -1 14 20 8 18 -4 26
-2 26 7 0 11 3 11 10 -1 8 -11 9 -7 4 14 -5 20 -3 27 4 22 6 -3 13 -2 17 3 3
6 12 8 20 4 10 -3 15 1 15 12 0 9 -9 19 -20 22 -11 3 -20 10 -20 15 0 10 25
38 34 38 3 0 18 12 33 26 28 26 28 26 8 42 -16 14 -19 24 -14 52 4 19 7 27 8
17 1 -15 26 -73 37 -86 1 -1 8 0 14 4 8 5 8 11 -1 21 -9 11 -9 18 -1 26 8 8 6
17 -5 35 -14 21 -14 26 -2 34 19 12 55 6 51 -9 -1 -6 2 -12 7 -12 12 0 41 28
41 40 0 4 10 6 22 2 18 -4 20 -2 16 16 -5 17 0 22 23 27 18 4 29 13 29 24 0 9
5 22 12 29 7 7 11 30 9 52 -2 26 2 40 9 40 7 0 10 -7 6 -15 -3 -9 0 -15 8 -15
8 0 17 6 19 13 4 9 6 9 6 -1 1 -20 21 -3 21 17 0 11 9 21 21 24 18 5 21 12 17
47 l-4 42 36 -6 c21 -3 30 -2 21 3 -9 6 -10 11 -2 15 16 10 14 26 -4 26 -8 0
-15 6 -15 14 0 17 24 28 45 20 17 -7 19 4 5 40 -9 26 3 38 13 14 4 -8 6 -7 6
4 1 10 13 19 31 23 25 5 30 11 25 26 -8 23 3 24 32 4 16 -11 22 -12 26 -2 3 9
10 7 25 -6 16 -15 24 -16 41 -7 26 13 27 40 2 40 -16 0 -19 11 -25 71 -8 74
-4 91 16 71 14 -14 64 -16 73 -2 3 5 -3 15 -15 22 -25 16 -26 28 -2 28 25 1
50 22 62 54 6 17 14 24 22 20 7 -5 9 -2 5 9 -4 11 3 17 31 24 30 7 38 14 42
38 3 17 8 25 12 19 9 -14 56 -6 55 9 -1 40 3 49 17 38 10 -8 22 -7 49 4 36 15
37 16 32 60 -2 24 0 47 5 50 6 3 10 1 10 -4 0 -6 7 -11 15 -11 14 0 14 3 0 30
-8 16 -23 33 -32 39 -10 5 -15 13 -11 17 4 4 14 1 23 -6 18 -15 20 1 3 18 -9
9 -9 12 1 12 19 0 81 -70 81 -91 0 -11 5 -19 10 -19 6 0 10 8 10 17 0 13 3 14
12 5 7 -7 19 -12 27 -12 11 0 9 5 -7 16 -12 8 -22 26 -22 39 0 13 -4 27 -10
30 -5 3 -10 18 -10 32 0 21 3 23 14 14 10 -8 16 -9 21 -1 4 7 13 7 28 -1 16
-9 22 -9 25 -1 2 8 9 7 19 -4 9 -8 19 -12 24 -7 13 13 -1 53 -18 53 -10 0 -13
6 -9 16 3 9 6 20 6 26 0 6 7 8 15 4 8 -3 18 1 22 8 5 7 31 23 58 35 55 24 87
66 78 100 -3 12 -1 21 3 21 12 -1 50 -30 47 -35 -6 -11 -2 -25 7 -25 6 0 10
11 10 24 0 32 14 40 35 20 26 -26 44 -1 19 27 -19 21 -19 22 4 36 27 19 30 63
5 63 -38 0 -64 -13 -58 -27 3 -11 1 -13 -10 -10 -8 4 -17 1 -21 -4 -3 -6 -13
-1 -22 12 -15 21 -16 22 -23 3 -7 -17 -8 -17 -8 4 -1 15 -7 22 -21 22 -17 0
-20 -7 -20 -40z"/>
<path d="M4240 4550 c0 -5 5 -10 10 -10 6 0 10 5 10 10 0 6 -4 10 -10 10 -5 0
-10 -4 -10 -10z"/>
<path d="M3350 3555 c0 -8 -5 -15 -11 -15 -5 0 -7 -5 -4 -11 5 -7 14 -4 26 7
23 21 24 34 4 34 -8 0 -15 -7 -15 -15z"/>
<path d="M2620 1830 c0 -13 18 -22 24 -11 3 5 -1 11 -9 15 -8 3 -15 1 -15 -4z"/>
</g>
</svg>
